<?xml version="1.0" encoding="utf-8"?>
<!-- Generator: Adobe Illustrator 19.1.0, SVG Export Plug-In . SVG Version: 6.00 Build 0)  -->
<svg version="1.1" id="Layer_1" xmlns="http://www.w3.org/2000/svg" xmlns:xlink="http://www.w3.org/1999/xlink" x="0px" y="0px"
	 viewBox="0 0 341.3 487.3" style="enable-background:new 0 0 341.3 487.3;" xml:space="preserve">
<style type="text/css">
	.st0{fill-rule:evenodd;clip-rule:evenodd;fill:#AD2B65;}
	.st1{fill-rule:evenodd;clip-rule:evenodd;fill:#F0E8DE;}
	.st2{fill-rule:evenodd;clip-rule:evenodd;fill:#2C242E;}
</style>
<path class="st0" d="M244.4,27.7c2.9,2.3,6.8,6,11.3,10.7c4.5,4.7,9.6,10.5,15,16.8c5.4,6.3,11,13.2,16.6,20.2
	c5.5,7,11,14,15.9,20.7c5,6.7,9.4,13,13.1,18.5c3.6,5.5,6.4,10.2,8,13.6c1.6,3.4,2.5,7.4,2.5,11.1c0,3.7-0.5,9-1.4,15.5
	c-0.9,6.5-2.2,14.1-3.8,22.3c-1.6,8.2-3.4,16.9-5.4,25.6c-2,8.7-4.1,17.4-6.2,25.4c-2.1,8.1-4.2,15.6-6.2,21.9
	c-2,6.3-3.9,11.4-5.5,14.8c-1.6,3.4-4.2,6.6-7.1,8.9c-2.9,2.3-7.4,5.2-13.1,8.5c-5.6,3.3-12.4,7-19.8,10.9
	c-7.4,3.9-15.3,7.8-23.3,11.7c-8,3.9-16.1,7.6-23.7,11c-7.6,3.4-14.7,6.4-20.9,8.8c-6.1,2.4-11.3,4.1-14.9,5
	c-3.6,0.9-7.7,0.9-11.3,0c-3.6-0.9-8.7-2.6-14.9-5c-6.1-2.4-13.3-5.4-20.9-8.8c-7.6-3.4-15.7-7.1-23.7-11c-8-3.9-16-7.9-23.3-11.7
	c-7.4-3.8-14.1-7.6-19.8-10.9c-5.6-3.3-10.2-6.2-13.1-8.5s-5.4-5.5-7.1-8.9c-1.6-3.4-3.5-8.5-5.5-14.8c-2-6.3-4.1-13.8-6.2-21.9
	c-2.1-8.1-4.2-16.8-6.2-25.4c-2-8.7-3.8-17.4-5.4-25.6c-1.6-8.2-2.9-15.8-3.8-22.3c-0.9-6.5-1.4-11.8-1.4-15.5
	c0-3.7,0.9-7.7,2.5-11.1c1.6-3.4,4.4-8.1,8-13.6c3.6-5.5,8.1-11.8,13.1-18.5c5-6.7,10.4-13.8,15.9-20.7c5.5-7,11.2-13.9,16.6-20.2
	c5.4-6.3,10.5-12.1,15-16.8c4.5-4.8,8.4-8.5,11.3-10.7c2.9-2.3,6.6-4,10.2-4.9c3.6-0.9,8.9-1.6,15.5-2.2c6.5-0.6,14.3-1,22.6-1.3
	c8.3-0.3,17.2-0.4,26.1-0.4c8.9,0,17.8,0.1,26.1,0.4c8.3,0.3,16,0.7,22.6,1.3c6.5,0.6,11.9,1.3,15.5,2.2
	C237.8,23.6,241.5,25.4,244.4,27.7"/>
<path class="st1" d="M236.7,184.4c-0.9-9.4-6.1-23.8-13.8-38.4c-2.2,3.4-6,5.7-10.4,5.7c-6.9,0-12.5-5.6-12.5-12.5
	c0-6.6,5-11.9,11.4-12.4c-1.2-1.7-1.8-2.5-1.8-2.5c-12.2-17.4-21.2-32.4-39.8-32c-21.6,0.5-39.6,6.4-45.5,23.5
	c-6.5,18.8-6.5,48.2-8.9,68c-4.4,37.3,22.9,53.4,55.8,54.8l2.2,0.1C206,239,240.3,221.7,236.7,184.4 M169.6,155.3
	c-4.1,0-7.5-3.4-7.5-7.5c0-4.2,3.4-7.5,7.5-7.5c4.1,0,7.5,3.4,7.5,7.5C177.1,151.9,173.7,155.3,169.6,155.3"/>
<path class="st2" d="M294.2,402.2c-18.8,0-33.9,14.3-33.9,33.7c0,19.3,15,33.7,33.9,33.7s33.9-14.4,33.9-33.7
	C328.1,416.5,312.9,402.2,294.2,402.2z M294.2,462.8c-14.7,0-26.5-11.9-26.5-26.9s11.8-26.9,26.5-26.9s26.5,11.9,26.5,26.9
	S308.8,462.8,294.2,462.8z M41.5,407.9c-4.4-3.8-9.9-4.6-16.4-4.6H13.3v65.2h7.2v-28.3h6.4c14.9,0,20.6-9.1,20.6-18.3
	C47.5,417.8,46.3,412,41.5,407.9z M26.5,433.3h-6v-23.2h5.4c4.7,0,14.4,1,14.4,11.3C40.2,429,35.1,433.3,26.5,433.3z M88.2,402.2
	c-18.8,0-33.9,14.3-33.9,33.7c0,19.3,15,33.7,33.9,33.7s33.9-14.4,33.9-33.7C122.1,416.5,107,402.2,88.2,402.2z M88.2,462.8
	c-14.7,0-26.5-11.9-26.5-26.9s11.8-26.9,26.5-26.9s26.5,11.9,26.5,26.9S102.9,462.8,88.2,462.8z M163.8,403.3h-38.9v6.8h15.8v58.3
	h7.2v-58.3h15.8V403.3z M161.6,468.5h8l7.8-18.4h27.8l7.6,18.4h8l-29.2-68.3L161.6,468.5z M180.3,443.3l11.1-26.1l10.9,26.1H180.3z
	 M218.6,410.1h15.8v58.3h7.2v-58.3h15.8v-6.8h-38.9V410.1z"/>
</svg>
